# xmcd CD database file
#
# Track frame offsets:
#	150
#	713
#	16484
#	33583
#	52626
#	74117
#	82223
#	102703
#	130535
#	140869
#	160779
#	177141
#
# Disc length: 2721 seconds
#
# Revision: 0
# Processed by: cddbd v1.5.2PL0 Copyright (c) Steve Scherf et al.
# Submitted via: CD2WAV32(JP) R3.22
#
DISCID=a40a9f0c
DTITLE=ゼッケン屋 - Dry Eye Party
DYEAR=2007
DGENRE=Game
TTITLE0=インビテイション
TTITLE1=ハイコートポロロッカ
TTITLE2=バトルフィールド・グルーヴ
TTITLE3=京都千秋
TTITLE4=博麗ちゃん境内から落下す
TTITLE5=栗星（チルノと）
TTITLE6=ヤクプリ
TTITLE7=境界へと至る病
TTITLE8=バックホーム永遠亭
TTITLE9=シャンハイ・コーリング～幻想は燃えている
TTITLE10=ミルキーウェイ（Autobahn）
TTITLE11=9、変(こい)のセカンドライフ
EXTD=
EXTT0=
EXTT1=
EXTT2=
EXTT3=
EXTT4=
EXTT5=
EXTT6=
EXTT7=
EXTT8=
EXTT9=
EXTT10=
EXTT11=
PLAYORDER=
